<?xml version="1.0" standalone="no"?>
<!DOCTYPE svg PUBLIC "-//W3C//DTD SVG 20010904//EN"
 "http://www.w3.org/TR/2001/REC-SVG-20010904/DTD/svg10.dtd">
<svg version="1.0" xmlns="http://www.w3.org/2000/svg"
 width="35.000000pt" height="32.000000pt" viewBox="0 0 35.000000 32.000000"
 preserveAspectRatio="xMidYMid meet">

<g transform="translate(0.000000,32.000000) scale(0.100000,-0.100000)"
fill="#000000" stroke="none">
<path d="M100 229 c-82 -63 -84 -65 -75 -78 4 -8 29 7 70 39 34 27 67 50 71
50 5 0 35 -20 66 -45 56 -43 78 -54 78 -37 0 5 -11 19 -25 32 -14 13 -25 34
-25 47 0 16 -6 23 -20 23 -11 0 -20 -5 -20 -12 0 -6 -10 -2 -23 10 -13 12 -25
22 -28 22 -2 0 -33 -23 -69 -51z"/>
<path d="M113 187 c-53 -42 -53 -42 -53 -99 l0 -58 40 0 40 0 0 40 c0 36 3 40
24 40 27 0 35 -13 30 -52 -3 -27 -1 -28 42 -28 l44 0 0 54 c0 53 -1 56 -47 92
-27 21 -52 41 -58 45 -5 4 -34 -12 -62 -34z"/>
</g>
</svg>
